# xmcd
#
# Track frame offsets:
# 150
# 9907
# 23255
# 32916
# 41445
# 51253
# 60967
# 69359
# 81137
# 92879
# 102216
# 113126
#
# Disc length: 1635 seconds
#
#
# Revision: 0
# Processed by: cddbd v1.5.2PL0 Copyright (c) Steve Scherf et al.
# Submitted via: FreeRIP 2.96 
#
DISCID=8406610c
DTITLE=Charlie Moore and Bill Napier - Bluegrass Gospel And Sacred Songs
DYEAR=2000
DGENRE=Bluegrass Gospel
TTITLE0=Don't Wait Too Long
TTITLE1=The Stranger In The Tavern
TTITLE2=Wayfaring Pilgram
TTITLE3=I Believe In The Old Time Way
TTITLE4=Take A Message To Mother
TTITLE5=Will The Cirlce Be Unbroken
TTITLE6=Shout And Sing
TTITLE7=He Leads Me On
TTITLE8=Oh Lord I Am Glad
TTITLE9=Won't You Come In
TTITLE10=That Beauiful Home
TTITLE11=Sweeter Than The Flowers
EXTD=Gusto Records
EXTT0=
EXTT1=
EXTT2=
EXTT3=
EXTT4=
EXTT5=
EXTT6=
EXTT7=
EXTT8=
EXTT9=
EXTT10=
EXTT11=
PLAYORDER=
